<?xml version="1.0" standalone="no"?>
<!DOCTYPE svg PUBLIC "-//W3C//DTD SVG 20010904//EN"
 "http://www.w3.org/TR/2001/REC-SVG-20010904/DTD/svg10.dtd">
<svg version="1.0" xmlns="http://www.w3.org/2000/svg"
 width="700.000000pt" height="700.000000pt" viewBox="0 0 700.000000 700.000000"
 preserveAspectRatio="xMidYMid meet">
<metadata>
Created by potrace 1.14, written by Peter Selinger 2001-2017
</metadata>
<g transform="translate(0.000000,700.000000) scale(0.100000,-0.100000)"
fill="#000000" stroke="none">
<path d="M3278 6995 c-1 -1 -42 -5 -89 -9 -47 -4 -95 -8 -106 -10 -11 -3 -44
-7 -74 -11 -312 -37 -711 -158 -1024 -311 -180 -87 -448 -247 -555 -331 -8 -6
-51 -40 -95 -74 -342 -266 -650 -623 -875 -1014 -47 -81 -170 -327 -170 -339
0 -3 -11 -29 -24 -58 -43 -96 -112 -298 -142 -413 -4 -16 -8 -34 -10 -40 -5
-16 -25 -98 -30 -120 -39 -194 -47 -242 -60 -350 -26 -230 -26 -667 1 -826 2
-13 6 -46 9 -74 21 -182 109 -547 165 -680 5 -11 25 -65 46 -120 67 -177 177
-391 318 -620 7 -10 48 -69 91 -130 430 -601 1026 -1045 1719 -1280 122 -41
361 -107 432 -118 17 -3 71 -12 120 -21 50 -8 117 -18 150 -21 33 -4 71 -9 85
-12 60 -12 560 -11 680 2 511 54 962 197 1395 443 77 44 323 204 361 235 11 9
60 49 109 89 136 110 291 259 405 387 36 41 70 79 75 85 6 6 26 31 45 56 19
25 38 50 43 55 212 263 417 648 544 1020 42 125 72 230 98 348 13 57 45 237
50 282 4 28 8 61 11 75 28 164 25 650 -6 866 -19 134 -21 150 -41 244 -150
710 -483 1315 -999 1816 -165 160 -231 213 -510 411 -111 79 -424 244 -600
316 -224 91 -559 185 -760 212 -19 3 -46 7 -60 10 -13 2 -52 7 -86 11 -33 3
-74 8 -90 10 -32 5 -540 14 -546 9z"/>
</g>
</svg>
